<svg xmlns="http://www.w3.org/2000/svg"  viewBox="0 0 40 40" width="30px" height="30px"><path fill="#ffc49c" d="M4.769,37.5c-1.251,0-2.269-1.019-2.269-2.27V4.77c0-1.251,1.018-2.27,2.269-2.27h30.462 c1.251,0,2.269,1.019,2.269,2.27V35.23c0,1.251-1.018,2.27-2.269,2.27H4.769z"/><path fill="#b08159" d="M35.231,3C36.206,3,37,3.794,37,4.769v30.462C37,36.206,36.206,37,35.231,37H4.769 C3.794,37,3,36.206,3,35.231V4.769C3,3.794,3.794,3,4.769,3H35.231 M35.231,2H4.769C3.24,2,2,3.24,2,4.769v30.462 C2,36.76,3.24,38,4.769,38h30.462C36.76,38,38,36.76,38,35.231V4.769C38,3.24,36.76,2,35.231,2L35.231,2z"/><path fill="#e0ac89" d="M25.615,25.846C34.462,16.998,21,6,21,6l-3-3H4.769C3.794,3,3,3.794,3,4.769V20l2,2 C5,22,16.768,34.694,25.615,25.846z"/><path fill="#fff" d="M21,6c7.161,4.692,9,8.989,9,13c0,2.009-1.001,3.901-1.001,3.901s3.397,3.551,1.338,7.099 c0,0-1.089-3-3.337-3c-2.166,0-3.398,3-7.758,3C9.534,30,5,22,5,22c9.374,6.044,14.589,1.077,14.589,1.077C12.722,17.92,7,9,7,9 c7.299,6.155,11,9,11,9c-1.882-1.542-8-10-8-10c4.224,4.238,13.396,10.923,13.396,10.923C25.587,13.418,21,6,21,6z"/></svg>